<?xml version="1.0" encoding="utf-8"?>
<!-- Generator: Adobe Illustrator 24.3.0, SVG Export Plug-In . SVG Version: 6.00 Build 0)  -->
<svg version="1.1" id="Layer_1" xmlns="http://www.w3.org/2000/svg" xmlns:xlink="http://www.w3.org/1999/xlink" x="0px" y="0px"
	 viewBox="0 0 755.7 559.5" style="enable-background:new 0 0 755.7 559.5;" xml:space="preserve">
<style type="text/css">
	.st0{fill:#FFE1F1;}
	.st1{fill:#FFFFFF;}
	.st2{fill:#FFB8B8;}
	.st3{fill:#FFB6B6;}
	.st4{fill:#2F2E41;}
	.st5{fill:#3F3D56;}
	.st6{fill:#E55EAC;}
	.st7{fill:#E6E6E6;}
	.st8{fill:#F9C7E4;}
	.st9{fill:none;stroke:#FF0080;stroke-width:2;stroke-miterlimit:10;}
</style>
<path class="st0" d="M537.4,411.3H132.5c-7.5,0-13.6-6.1-13.6-13.6V68c0-7.5,6.1-13.6,13.6-13.6h404.9c7.5,0,13.6,6.1,13.6,13.6
	v329.7C551,405.2,545,411.3,537.4,411.3z"/>
<path class="st1" d="M141.7,64c-7.2,0-13.1,5.9-13.1,13.1v311.4c0,7.2,5.9,13.1,13.1,13.1h277.2c67.6-0.1,122.4-54.9,122.5-122.5
	V77.2c0-7.2-5.9-13.1-13.1-13.1L141.7,64z"/>
<path class="st0" d="M463.6,204.1h-73.4c-3.2,0-5.8-2.6-5.8-5.8v-36.5c0-3.2,2.6-5.8,5.8-5.8h73.4c3.2,0,5.8,2.6,5.8,5.8
	c4.5,12.9,5.2,25.2,0,36.5C469.4,201.5,466.8,204.1,463.6,204.1z"/>
<path class="st1" d="M454.9,200.5h-62.4c-2.7,0-4.9-2.2-4.9-4.9v-31c0-2.7,2.2-4.9,4.9-4.9h62.4c2.7,0,4.9,2.2,4.9,4.9
	c4.2,11.1,4.9,21.5,0,31C459.8,198.3,457.6,200.5,454.9,200.5z"/>
<path class="st0" d="M451.5,223.2H402c-3,0-5.5-2.4-5.5-5.5s2.4-5.5,5.5-5.5h49.5c3,0,5.5,2.5,5.5,5.5
	C457,220.8,454.6,223.2,451.5,223.2z"/>
<path class="st0" d="M418.3,168.1c-1.2,0-2.1,1-2.1,2.1v23.3c0,1.2,1,2.1,2.1,2.1c0.4,0,0.7-0.1,1.1-0.3l20.5-11.7
	c1-0.6,1.4-1.9,0.8-2.9c-0.2-0.3-0.5-0.6-0.8-0.8l-20.5-11.6C419,168.2,418.7,168.1,418.3,168.1z"/>
<path class="st0" d="M717.8,515c-2.3-2.9-6.2-4.2-9.8-3.1l-0.4,0.1l-3.4,13.5c-0.5-2-1.6-6.5-2.3-11l-0.1-0.4l-0.3,0.2
	c-3.6,1.6-7,3.6-10.1,6.1c-11.1,8.9-17.7,22.2-18.1,36.4v0.3v0.2l0.5-0.2l9.8-3.5c8.8,0.8,17.4-2.5,23.6-8.8c4-4.2,6.7-9.5,9.3-14.7
	c0.8-1.5,1.6-3.1,2.4-4.6C720.6,522,720.2,517.9,717.8,515z"/>
<path class="st2" d="M467.7,171.7c0.7,3.8,4.5,6.4,8.3,5.6c0.4-0.1,0.8-0.2,1.2-0.3l29.3,34.1l3.7-12.6l-29-31.2
	c-1.7-3.6-5.9-5.1-9.5-3.5C468.7,165.3,467,168.5,467.7,171.7z"/>
<polygon class="st3" points="585.7,548.8 576,548.8 571.4,511.5 585.7,511.5 "/>
<path class="st4" d="M585.4,545.7l-10.3-4.2l-0.3-0.1l-5.7,4.3c-6.7,0-12.2,5.4-12.2,12.2v0.4h31.2v-12.6L585.4,545.7L585.4,545.7z"
	/>
<polygon class="st3" points="654.8,548.8 645.1,548.8 640.5,511.5 654.8,511.5 "/>
<path class="st4" d="M654.5,545.7l-10.3-4.2l-0.3-0.1l-5.7,4.3c-6.7,0-12.2,5.4-12.2,12.2v0.4h31.2v-12.6L654.5,545.7L654.5,545.7z"
	/>
<path class="st4" d="M631.9,325.7c0,0,12.2,12.6,12.2,23s-3,24.7,0,27.8s6.8,6.9,2.3,11.5s-6.8,6.8-3.8,9.9s1.5,56.2,1.5,56.2
	l15.9,71.4h-20.1l-25.5-71.4l-6.8-59.2l-22.1,57l2.4,74.3l-21-0.6l-8.7-79c0,0,12.9-75.1,10.6-77.1s0-5.8,0-5.8l6.1-28.8
	L631.9,325.7z"/>
<path class="st5" d="M608.1,236.1c0,0,4.1-16.3-14.9-20.9s-73.4-10.7-73.4-10.7l-27.5-29.2l-9.3,13.5l30.8,38.3l73,15L608.1,236.1z"
	/>
<path class="st0" d="M487.5,187.8c0.9-1.1,1.5-2.3,2-3.7l3.9-9.7h-1c-5.6-1-10.9,2.6-11.9,8.2c-0.1,0.4-0.1,0.8-0.1,1.2
	c-0.1,1.2,0.1,2.5,0.6,3.6c0.6,1.1,1.6,1.9,2.9,2.1C485.2,189.5,486.6,188.9,487.5,187.8z"/>
<path class="st0" d="M571.1,338.7l-2.3,16.5c0,0,4.6,4.9,6.8,4.3s10.6-4.2,10.6-4.2s9.9,5.4,15.2,6s33.4-3.1,34.2-4.9s9.6-9,9.6-9
	l-3.5-21L571.1,338.7z"/>
<path class="st5" d="M645.1,280.9c0,0-1.9,15.9-0.4,17.4s-1.5,10.7-4.6,16.8s2.3,6.8,2.3,11.4s2.3,21.3,2.3,21.3s-23.5,1.5-27.3-2.3
	s-9.9-0.8-18.2,7.6s-26.5,1.5-30.3-2.3s3-17.5,5.2-20.1s-2.2,0.4-4.5-8s2.2-7.6,6-11.4s0-10.6-3-17.5s-0.8-57.7-0.8-69.9
	s16.7-13.7,16.7-13.7l6.6-8.3l4.9-6.1l9.5-0.4h0.3l9.2-0.4l4.5,5.2l9.9,11.5l11.4,2.3c9.1,3,6.8,22,6.8,22L645.1,280.9z"/>
<circle class="st3" cx="609" cy="172.6" r="19.5"/>
<path class="st4" d="M631.6,166.1c-5.4-3.3-4.7-11.9-9.9-14.9s-11.6-3.3-17-0.7c-3.6-1.6-8-0.3-10.9,2.5s-4.5,7-5,11.1
	c-0.3,4.2,0,8.4,0.9,12.5c0.3-1.6,0.6-3.3,0.9-4.9l15.4-3.4c-1.4,1.2-2.7,2.4-4.1,3.7c7,1.6,14.3,0.4,20.4-3.2
	c6.7,3,5.5,9.7-0.4,18.7C624.2,191.3,637.7,169.8,631.6,166.1z"/>
<path class="st0" d="M623.4,200.3l-0.1,0.1c-1.6,1-3.5,1.5-5.3,1.4c-2.5,0.2-4.9-0.6-6.8-2.1c-1-0.9-5,1-7.5,2.1
	c-2.7,1.1-5.8,1.2-8.5,0.1l4.9-6.1l8-1.8h2l9,1L623.4,200.3z"/>
<path class="st0" d="M754.5,559.2l-271.8,0.3c-0.7,0-1.2-0.5-1.2-1.2s0.5-1.2,1.2-1.2l0,0l271.8-0.3c0.7,0,1.2,0.5,1.2,1.2
	C755.6,558.6,755.1,559.2,754.5,559.2z"/>
<polygon class="st6" points="429.1,148.8 427.1,148.8 427.1,16.3 501.3,16.3 501.3,18.3 429.1,18.3 "/>
<path class="st0" d="M283,205.3l52.4-12.1l15-3.5c1.9-0.4,1.1-3.3-0.8-2.9l-52.4,12.1l-15,3.5C280.3,202.9,281.1,205.8,283,205.3
	L283,205.3z"/>
<path class="st0" d="M337.1,173.7l28.1,12.9c1,0.3,1.9,0.8,2.7,1.4c0.8,0.8,0.2,1.5-0.4,2.1c-1.9,1.8-3.9,3.4-6,4.9l-12,9.7
	c-1.5,1.2,0.6,3.3,2.1,2.1l10.4-8.5l5.2-4.2c1.5-1.2,3.3-2.4,3.9-4.3c1.2-4-3.7-5.6-6.4-6.9l-12.2-5.6l-13.8-6.3
	C336.9,170.4,335.3,172.9,337.1,173.7L337.1,173.7z"/>
<path class="st0" d="M724.2,272c-5-3.4-11.1-4.6-17-5.1c-6.7-0.4-13.5-0.4-20.3,0c-7,0.3-14,0.8-21,1.5s-13.9,1.7-20.8,2.9
	c-6.2,1-12.3,2.3-18.3,4c-5.7,1.6-11.1,4.2-15.9,7.7c-4.2,3.2-7.4,7.4-9.3,12.3c-1.9,4.6-2.2,9.7-0.9,14.5c0.7,2.3,1.8,4.5,3.4,6.3
	c1.8,2,4,3.7,6.3,5c5,2.8,10.6,4.5,15.1,8.2c1.2,0.9,2.3,2,3.2,3.2c0.6,0.9,1.5,1.6,2.6,2c2,0.7,4.2,0.1,5.7-1.5
	c0.9-1.2,1.6-2.6,2.2-4l2.4-4.6c0.2-0.4,0.4-0.8,0.6-1.1c0.2-0.2-0.1,0-0.1-0.1c0,0,0.1,0,0.1-0.1c0.2-0.1,0.4-0.2,0.6-0.2
	c2.2-0.8,4.4-1.6,6.6-2.4c8.1-2.9,16.4-5.6,24.8-7.7c4.3-1.2,8.7-2.1,13.1-2.7c5.7-0.8,11.5-0.7,17.3-1.3c6.2-0.6,12.6-1.9,17.9-5.3
	c4.4-2.7,7.8-6.7,9.6-11.5c0.8-2.3,1.1-4.7,0.8-7.1C732.2,279.6,728.7,275,724.2,272z"/>
<path class="st1" d="M714,275c-4.5-3.1-10-4.2-15.4-4.6c-6.1-0.3-12.2-0.3-18.3,0c-6.3,0.3-12.7,0.7-19,1.4
	c-6.3,0.7-12.6,1.5-18.8,2.6c-5.6,0.9-11.1,2.1-16.6,3.6c-5.2,1.4-10,3.8-14.3,6.9c-3.8,2.9-6.7,6.7-8.4,11.1
	c-1.7,4.2-2,8.7-0.8,13.1c0.6,2.1,1.7,4.1,3.1,5.7c1.6,1.8,3.6,3.4,5.7,4.5c4.5,2.6,9.6,4.1,13.6,7.4c1.1,0.9,2,1.8,2.9,2.9
	c0.6,0.8,1.4,1.5,2.3,1.8c1.8,0.6,3.8,0.1,5.1-1.3c0.8-1.1,1.5-2.3,2-3.6l2.1-4.1c0.1-0.4,0.3-0.7,0.5-1c0.2-0.2-0.1,0-0.1,0h0.1
	c0.2-0.1,0.4-0.2,0.6-0.2c2-0.8,4-1.5,6-2.2c7.4-2.6,14.8-5,22.4-7c3.9-1,7.8-1.9,11.8-2.5c5.2-0.7,10.4-0.7,15.6-1.2
	c5.6-0.5,11.4-1.7,16.1-4.7c4-2.4,7-6.1,8.7-10.4c0.7-2.1,1-4.3,0.7-6.4C721.2,281.9,718,277.8,714,275z"/>
<path class="st0" d="M704.6,280.6L631,294.2c-0.9,0.2-1.7-0.4-1.9-1.3s0.4-1.7,1.3-1.9l0,0l0,0l73.6-13.6c0.9-0.2,1.7,0.4,1.9,1.3
	C706,279.6,705.4,280.4,704.6,280.6L704.6,280.6z"/>
<path class="st0" d="M706.4,290.4L632.8,304c-0.9,0.2-1.7-0.4-1.9-1.3s0.4-1.7,1.3-1.9l0,0l0,0l73.6-13.6c0.9-0.2,1.7,0.4,1.9,1.3
	C707.8,289.4,707.2,290.2,706.4,290.4L706.4,290.4L706.4,290.4z"/>
<path class="st7" d="M643.2,312.2l-8.6,1.6c-0.9,0.2-1.7-0.4-1.9-1.3s0.4-1.7,1.3-1.9l8.6-1.6c0.9-0.2,1.7,0.4,1.9,1.3
	C644.6,311.2,644,312.1,643.2,312.2z"/>
<ellipse transform="matrix(0.9834 -0.1814 0.1814 0.9834 -52.2698 121.0622)" class="st8" cx="635.7" cy="346.3" rx="6.9" ry="6.9"/>
<path class="st0" d="M256,202.2h-62.9c-6.1,0-11-4.9-11-11v-41.4c0-6.1,4.9-11,11-11H256c6.1,0,11,4.9,11,11v41.4
	C267,197.3,262.1,202.2,256,202.2z"/>
<path class="st1" d="M249.1,200h-54.7c-5.3,0-9.6-4.3-9.6-9.6v-36.1c0-5.3,4.3-9.6,9.6-9.6h54.7c5.3,0,9.6,4.3,9.6,9.6v36.1
	C258.7,195.7,254.4,200,249.1,200z"/>
<path class="st0" d="M264.9,239.6h-80.7c-1,0-1.9-0.8-1.9-1.9c0-1,0.8-1.9,1.9-1.9h80.7c1,0,1.9,0.8,1.9,1.9
	C266.8,238.7,265.9,239.5,264.9,239.6z"/>
<path class="st0" d="M264.9,228.8h-80.7c-1,0-1.9-0.8-1.9-1.9c0-1,0.8-1.9,1.9-1.9h80.7c1,0,1.9,0.8,1.9,1.9
	S265.9,228.8,264.9,228.8z"/>
<path class="st0" d="M264.9,250.3h-80.7c-1,0-1.9-0.8-1.9-1.9s0.8-1.9,1.9-1.9l0,0h80.7c1,0,1.9,0.8,1.9,1.9
	S265.9,250.3,264.9,250.3z"/>
<path class="st0" d="M264.9,261.1h-80.7c-1,0-1.9-0.8-1.9-1.9s0.8-1.9,1.9-1.9l0,0h80.7c1,0,1.9,0.8,1.9,1.9
	C266.8,260.3,265.9,261.1,264.9,261.1z"/>
<path class="st0" d="M264.9,271.8h-80.7c-1,0-1.9-0.8-1.9-1.9s0.8-1.9,1.9-1.9l0,0h80.7c1,0,1.9,0.8,1.9,1.9
	S265.9,271.8,264.9,271.8z"/>
<path class="st0" d="M264.9,282.6h-80.7c-1,0-1.9-0.8-1.9-1.9c0-1,0.8-1.9,1.9-1.9h80.7c1,0,1.9,0.8,1.9,1.9
	C266.8,281.7,265.9,282.6,264.9,282.6z"/>
<polygon class="st6" points="222.6,263.1 224.6,263.1 224.6,336.3 82.5,336.3 82.5,334.3 222.6,334.3 "/>
<path class="st0" d="M284.7,255.1c17.5,3.7,13.1,4.5,30.6,8.2l15.1,3.2c1.9,0.4,2.4-2.6,0.5-3c-17.5-3.7-13.1-4.5-30.6-8.2
	l-15.1-3.2C283.3,251.7,282.8,254.7,284.7,255.1L284.7,255.1z"/>
<path class="st0" d="M325.1,246.4l20,23.6c0.7,0.7,1.3,1.5,1.8,2.4c0.4,1-0.4,1.4-1.3,1.8c-2.5,0.8-5,1.4-7.5,1.9l-14.9,3.7
	c-1.9,0.5-0.9,3.3,1,2.8l13-3.3l6.5-1.6c1.8-0.5,4-0.8,5.3-2.3c2.8-3.1-1-6.6-2.9-8.9l-8.7-10.3l-9.8-11.6
	C326.3,243.2,323.8,244.9,325.1,246.4L325.1,246.4z"/>
<circle class="st0" cx="388.4" cy="321.3" r="27.8"/>
<circle class="st1" cx="385.6" cy="324.4" r="21.1"/>
<path class="st0" d="M381.9,338.9c-1,0-1.9-0.5-2.5-1.2l-7.6-10.1c-1-1.4-0.7-3.3,0.6-4.3c1.4-1,3.3-0.7,4.3,0.6l0,0l0,0l5,6.6
	l12.7-19.1c0.9-1.4,2.9-1.8,4.3-0.9s1.8,2.9,0.9,4.3l0,0l-15.2,22.7C383.9,338.3,382.9,338.8,381.9,338.9L381.9,338.9z"/>
<path class="st2" d="M647.8,349.9c3.4-2,4.5-6.3,2.5-9.7c-0.2-0.4-0.5-0.7-0.7-1l22.3-39l-13.1,0.7l-19.7,37.8
	c-2.8,2.8-2.9,7.3-0.1,10.1C641.3,351.1,644.9,351.6,647.8,349.9L647.8,349.9z"/>
<path class="st5" d="M622.6,213.3c0,0,23.6-7.6,29.7,10.6s26.5,67.6,26.5,67.6l-21.9,44.8l-9.9-10.6l10.6-31.1L627.2,249
	L622.6,213.3z"/>
<path class="st0" d="M657.6,331.7c-0.7-1.2-1.6-2.3-2.7-3.2l-7.5-7.3l-0.4,0.9c-3,4.8-1.6,11.1,3.2,14.1c0.3,0.2,0.7,0.4,1,0.6
	c1.1,0.6,2.4,0.8,3.6,0.7c1.3-0.1,2.4-0.8,3-1.9C658.4,334.5,658.3,333,657.6,331.7z"/>
<polygon class="st6" points="386.1,364 384.1,364 384.1,438.1 448.9,438.1 448.9,436 386.1,436 "/>
<path class="st9" d="M566.9,3.6h-53c-7.2,0-13,5.8-13,13s5.8,13,13,13h53c7.2,0,13-5.8,13-13S574.1,3.6,566.9,3.6z"/>
<circle class="st9" cx="426.9" cy="160.4" r="11.9"/>
<path class="st9" d="M16.7,347.6h53c7.2,0,13-5.8,13-13s-5.8-13-13-13h-53c-7.2,0-13,5.8-13,13S9.5,347.6,16.7,347.6L16.7,347.6z"/>
<circle class="st9" cx="222.9" cy="251.8" r="11.9"/>
<path class="st9" d="M527.9,435.4c0-7.2-5.8-13-13-13h-53c-7.2,0-13,5.8-13,13s5.8,13,13,13h53C522.1,448.4,527.9,442.5,527.9,435.4
	z"/>
<circle class="st9" cx="385.7" cy="352.5" r="11.9"/>
</svg>
