<?xml version="1.0" encoding="utf-8"?>
<!-- Generator: Adobe Illustrator 24.3.0, SVG Export Plug-In . SVG Version: 6.00 Build 0)  -->
<svg version="1.1" id="Layer_1" xmlns="http://www.w3.org/2000/svg" xmlns:xlink="http://www.w3.org/1999/xlink" x="0px" y="0px"
	 viewBox="0 0 841.6 589" style="enable-background:new 0 0 841.6 589;" xml:space="preserve">
<style type="text/css">
	.st0{fill:#FFB8B8;}
	.st1{fill:#2F2E41;}
	.st2{opacity:0.28;enable-background:new    ;}
	.st3{fill:#CCCCCC;}
	.st4{fill:#E6E6E6;}
	.st5{fill:#FF0080;}
	.st6{fill:#FFFFFF;}
	.st7{fill:none;}
	.st8{opacity:0.2;enable-background:new    ;}
	.st9{fill:#F2F2F2;}
	.st10{fill:#3F3D56;}
</style>
<polygon class="st0" points="743.2,574.2 729.1,574.2 722.4,519.9 743.2,519.9 "/>
<path class="st1" d="M746.8,587.8l-45.4,0v-0.6c0-9.8,7.9-17.7,17.7-17.7h0l27.7,0L746.8,587.8z"/>
<polygon class="st0" points="805.3,539.6 796.2,550.3 750.5,520.1 764,504.3 "/>
<path class="st1" d="M818.1,545.7l-29.5,34.5l-0.4-0.4c-7.4-6.3-8.3-17.5-2-24.9l0,0l18-21.1L818.1,545.7z"/>
<polygon class="st1" points="643.2,307.1 638.9,347.5 816,345 738.8,219.1 675.7,216.8 "/>
<polygon class="st2" points="643.2,307.1 638.9,347.5 816,345 738.8,219.1 675.7,216.8 "/>
<path class="st1" d="M678.1,314.1l-6.3,37v33.1l50.4,16.5c0,0-5.9,128.4,2,136.6l-0.2,19.7l22,1l0.2-13.9l9.3-103.9l5.5-76.3
	l-8.9-57.8L678.1,314.1z"/>
<path class="st1" d="M717.1,345.9l-45.3,38.2c0,0-2.7,68.9,4.1,77c5.8,6.9,81,66.8,81,66.8s13.4,12.3,20.9,12.5s16.2-15.5,16.2-15.5
	l-17.4-13.2c0,0-45-42-58.3-58.7c-5.4-6.7-5.4-7.4-5.4-7.4l1.8-28l18.5-52L717.1,345.9z"/>
<polygon class="st1" points="669,162.9 649.5,161.1 631.8,164 594.2,164 591,191.2 625.3,198.9 633.6,194.8 668.4,208.1 "/>
<path class="st3" d="M692.4,162.8c0,0,41.5-3.9,50.9,3.5s29.6,154.3,29.6,154.3l-80.5,4.5l-14.4-9.9l4.1-73.3L692.4,162.8z"/>
<polygon class="st1" points="705,161.9 659.3,162.9 616.6,355.6 650.3,363 "/>
<polygon class="st1" points="737.5,160.3 773.6,171.5 771.5,250.7 816,345.4 763.7,350.9 722.4,248.7 "/>
<path class="st0" d="M797,355c4.8-4.2,5.2-11.5,1-16.2c-0.4-0.5-0.9-1-1.5-1.4l7.2-25.3l-14.3-8.2l-9.7,35.9
	c-3.6,5.3-2.3,12.5,2.9,16.1C787.1,358.9,793,358.6,797,355L797,355z"/>
<path class="st1" d="M752.7,173.7l21.3-1.8c0,0,19.1,20,23.5,35.5s9.1,64,9.1,64l-2,71l-24.9-16.9l-1.7-61L752.7,173.7z"/>
<ellipse transform="matrix(0.4797 -0.8775 0.8775 0.4797 266.7543 696.9739)" class="st0" cx="721" cy="123.6" rx="30.2" ry="30.2"/>
<path class="st1" d="M717.7,111c-4-0.9-8.1,0.1-12.1,0.8s-8.4,0.9-11.8-1.4c-2.5-1.7-4.1-4.4-5.5-7c-0.6-0.9-1-2-1.2-3.1
	c-0.2-1.9,1.1-3.7,2.4-5.2c6.1-6.7,15-10.4,24.1-11.6c7.4-1.1,15-0.2,22,2.7c6.8,3,12.7,8.5,15.4,15.5c1.2,3.6,2,7.3,2.3,11
	c0.4,2.8,0.5,5.6,0.2,8.4c-0.4,2.1-0.9,4.1-1.6,6.1l-4.5,13.4c-0.3,1.3-0.9,2.5-1.8,3.5c-0.9,1-2.3,1.3-3.5,0.8
	c0.4-1.5,0.4-3,0.2-4.5c-0.3-1.5-1.5-2.7-3-3c-1.6-0.2-3,1.1-4.6,1.6c-3,0.9-6.1-0.8-7-3.8c0-0.1-0.1-0.3-0.1-0.4
	c-0.2-1.5,0.2-3.2-0.4-4.6c-0.7-1.7-2.5-2.6-3.9-3.8c-2.5-2.3-3.5-5.9-2.4-9.2c0.4-1.1,1.4-1.6,1.2-2.9
	C721.6,112.5,719.1,111.3,717.7,111z"/>
<circle class="st0" cx="594" cy="176.9" r="12"/>
<path class="st3" d="M840.6,589h-187c-0.6,0-1-0.4-1-1s0.4-1,1-1h187c0.6,0,1,0.4,1,1S841.1,589,840.6,589z"/>
<g>
	<path class="st4" d="M392.3,71.7H72.5c-0.3,0-0.6-0.3-0.6-0.6s0.3-0.6,0.6-0.6h319.9c0.3,0,0.6,0.3,0.6,0.6S392.7,71.7,392.3,71.7z
		"/>
	<path class="st4" d="M392.3,96.6H72.5c-0.3,0-0.6-0.3-0.6-0.6s0.3-0.6,0.6-0.6h319.9c0.3,0,0.6,0.3,0.6,0.6S392.7,96.6,392.3,96.6z
		"/>
	<path class="st4" d="M392.3,121.5H72.5c-0.3,0-0.6-0.3-0.6-0.6s0.3-0.6,0.6-0.6h319.9c0.3,0,0.6,0.3,0.6,0.6
		S392.7,121.5,392.3,121.5z"/>
	<path class="st4" d="M392.3,146.4H72.5c-0.3,0-0.6-0.3-0.6-0.6s0.3-0.6,0.6-0.6h319.9c0.3,0,0.6,0.3,0.6,0.6
		S392.7,146.4,392.3,146.4z"/>
	<path class="st4" d="M392.3,171.3H72.5c-0.3,0-0.6-0.3-0.6-0.6s0.3-0.6,0.6-0.6h319.9c0.3,0,0.6,0.3,0.6,0.6
		S392.7,171.3,392.3,171.3z"/>
	<path class="st4" d="M148.2,172.3c-0.3,0-0.6-0.3-0.6-0.6L147,70.8c0-0.3,0.3-0.6,0.6-0.6h0c0.3,0,0.6,0.3,0.6,0.6l0.6,100.9
		C148.8,172,148.6,172.3,148.2,172.3L148.2,172.3z"/>
	<path class="st4" d="M234.8,172.3c-0.3,0-0.6-0.3-0.6-0.6l-0.6-100.9c0-0.3,0.3-0.6,0.6-0.6h0c0.3,0,0.6,0.3,0.6,0.6l0.6,100.9
		C235.4,172,235.1,172.3,234.8,172.3L234.8,172.3z"/>
	<path class="st4" d="M321.3,172.3c-0.3,0-0.6-0.3-0.6-0.6l-0.6-100.9c0-0.3,0.3-0.6,0.6-0.6h0c0.3,0,0.6,0.3,0.6,0.6l0.6,100.9
		C322,172,321.7,172.3,321.3,172.3L321.3,172.3z"/>
	<path class="st4" d="M137.9,50.5H78.8c-4.6,0-8.4-3.8-8.4-8.4s3.8-8.4,8.4-8.4h59.2c4.6,0,8.4,3.8,8.4,8.4S142.6,50.5,137.9,50.5z"
		/>
	<path class="st5" d="M120.2,90.7H96.5c-3.8,0-6.8-3-6.8-6.8c0-3.8,3-6.8,6.8-6.8c0,0,0,0,0,0h23.7c3.8,0,6.8,3,6.8,6.8
		C127.1,87.6,124,90.7,120.2,90.7C120.2,90.7,120.2,90.7,120.2,90.7z"/>
	<path class="st5" d="M203,115h-23.7c-3.8,0-6.8-3-6.8-6.8c0-3.8,3-6.8,6.8-6.8c0,0,0,0,0,0H203c3.8,0,6.8,3,6.8,6.8
		C209.9,111.9,206.8,115,203,115C203.1,115,203.1,115,203,115z"/>
	<path class="st5" d="M203,141.8h-23.7c-3.8,0-6.8-3-6.8-6.8c0-3.8,3-6.8,6.8-6.8c0,0,0,0,0,0H203c3.8,0,6.8,3,6.8,6.8
		C209.9,138.7,206.8,141.8,203,141.8C203.1,141.8,203.1,141.8,203,141.8z"/>
	<path class="st5" d="M291.5,91.3h-23.7c-3.8,0-6.8-3-6.8-6.8c0-3.8,3-6.8,6.8-6.8c0,0,0,0,0,0h23.7c3.8,0,6.8,3,6.8,6.8
		C298.3,88.3,295.3,91.3,291.5,91.3C291.5,91.3,291.5,91.3,291.5,91.3z"/>
	<path class="st5" d="M369.2,165.7h-23.7c-3.8,0-6.8-3-6.8-6.8c0-3.8,3-6.8,6.8-6.8c0,0,0,0,0,0h23.7c3.8,0,6.8,3,6.8,6.8
		C376,162.7,373,165.7,369.2,165.7C369.2,165.7,369.2,165.7,369.2,165.7z"/>
	<path class="st4" d="M221.9,50.8h-59.2c-4.6,0-8.4-3.8-8.4-8.4s3.8-8.4,8.4-8.4h59.2c4.6,0,8.4,3.8,8.4,8.4S226.5,50.8,221.9,50.8z
		"/>
	<path class="st4" d="M305.9,51.5h-59.2c-4.6,0-8.4-3.8-8.4-8.4s3.8-8.4,8.4-8.4h59.2c4.6,0,8.4,3.8,8.4,8.4S310.5,51.5,305.9,51.5z
		"/>
	<path class="st4" d="M389.8,51.5h-59.2c-4.6,0-8.4-3.8-8.4-8.4s3.8-8.4,8.4-8.4h59.2c4.6,0,8.4,3.8,8.4,8.4S394.5,51.5,389.8,51.5z
		"/>
	<path class="st6" d="M104.6,47.3l5.7-9.2l-1.7-0.2l3.4,8.7c0.1,0.5,0.7,0.8,1.1,0.7c0.5-0.1,0.8-0.7,0.7-1.1l-3.4-8.7
		c-0.2-0.5-0.7-0.8-1.2-0.6c-0.2,0.1-0.4,0.2-0.5,0.4l-5.7,9.2C102.4,47.4,104,48.4,104.6,47.3L104.6,47.3z"/>
	<path class="st6" d="M105.9,44.2l4.9-0.1c0.5,0,0.9-0.4,0.9-0.9c0-0.5-0.4-0.9-0.9-0.9l-4.9,0.1c-0.5,0-0.9,0.4-0.9,0.9
		S105.4,44.2,105.9,44.2L105.9,44.2z"/>
	<path class="st6" d="M195.6,42.2c-0.1-0.3-0.3-0.5-0.5-0.7c0.6-0.8,0.7-1.9,0.1-2.8c-0.5-0.7-1.2-1.2-2-1.4
		c-0.9-0.2-1.9-0.2-2.9,0.1c-0.1,0-0.1,0-0.2,0c-0.5,0-0.9,0.4-0.9,0.9c-0.1,2.5-0.2,4.9-0.3,7.4c0,0.1-0.1,0.1-0.1,0.2
		c-0.1,0.2,0,0.4,0.1,0.6c0,0.5,0.4,0.9,0.9,0.9c0.2,0,0.5-0.1,0.6-0.3c1.8,0.1,3.8-0.2,4.9-1.8C195.9,44.4,196,43.2,195.6,42.2z
		 M193.5,44.5c-0.8,0.6-1.8,0.9-2.7,0.8c0.1-2,0.2-4.1,0.3-6.1c0.8-0.1,1.8-0.2,2.4,0.4c0.1,0.1,0.2,0.2,0.2,0.3c0,0,0.1,0.2,0,0.2
		c0,0.1,0,0.1,0,0.2c-0.1,0.3-0.3,0.5-0.6,0.5c-0.5,0-0.9,0.4-0.9,0.9c0,0.5,0.4,0.9,0.9,0.9c0.4,0,0.7,0.3,0.8,0.7
		C194,43.7,193.9,44.2,193.5,44.5L193.5,44.5z"/>
	<path class="st6" d="M278,37.9c-2.8,0.5-4.8,2.9-4.9,5.8c-0.1,1.5,0.5,2.9,1.4,4c1.1,1.1,2.7,1.2,4.1,1c0.5,0,0.9-0.4,0.9-0.9
		c0-0.5-0.4-1-0.9-0.9c-1,0.1-2.1,0.3-2.9-0.5c-0.6-0.8-0.9-1.8-0.8-2.7c0.1-1.9,1.6-3.5,3.5-3.8c0.5-0.1,0.8-0.7,0.7-1.1
		C279,38,278.5,37.7,278,37.9L278,37.9z"/>
	<path class="st6" d="M357.3,38.8l0.2,9c0,0.5,0.4,0.9,1,0.9c0.1,0,0.1,0,0.2,0c3-0.6,4.9-3.5,4.3-6.5c-0.5-2.2-2.2-3.9-4.3-4.3
		c-0.5-0.1-1,0.2-1.1,0.7c-0.1,0.5,0.2,1,0.7,1.1c2,0.3,3.4,2.2,3,4.2c-0.3,1.5-1.4,2.7-3,3l1.2,0.9l-0.2-9
		C359.2,37.6,357.3,37.6,357.3,38.8z"/>
</g>
<g>
	<path class="st4" d="M320.6,348.7c0,2.1-1.7,3.9-3.8,3.9h-169c-2.1,0-3.9-1.7-3.8-3.9V233.3c0-2.1,1.7-3.9,3.8-3.9l0,0h169
		c2.1,0,3.9,1.7,3.8,3.9l0,0V348.7z"/>
	<path class="st6" d="M318.6,346.9c0,2.1-1.7,3.8-3.8,3.8l0,0h-165c-2.1,0-3.8-1.7-3.8-3.8V235.3c0-2.1,1.7-3.8,3.8-3.8l0,0h165
		c2.1,0,3.7,1.7,3.7,3.8V346.9z"/>
	<path id="a90d98f2-fe2a-41dc-85de-0aa221261a3e-386" class="st4" d="M154.9,236.4h155.1c1.2,0,2.2,1,2.2,2.2v104.5
		c0,1.2-1,2.2-2.2,2.2H154.9c-1.2,0-2.2-1-2.2-2.2l0,0V238.6C152.7,237.4,153.6,236.4,154.9,236.4L154.9,236.4L154.9,236.4z"/>
	<path class="st7" d="M156.8,238.9h151c1.2,0,2.2,1,2.2,2.2V340c0,1.2-1,2.2-2.2,2.2h-151c-1.2,0-2.2-1-2.2-2.2l0,0v-98.9
		C154.6,239.9,155.6,238.9,156.8,238.9L156.8,238.9z"/>
	<path class="st4" d="M281.6,362.6c0,2.1-1.7,3.9-3.8,3.9h-169c-2.1,0-3.9-1.7-3.8-3.9l0,0l0,0V247.2c0-2.1,1.7-3.9,3.8-3.9h169
		c2.1,0,3.9,1.7,3.8,3.9l0,0V362.6z"/>
	<path class="st6" d="M279.6,360.7c0,2.1-1.7,3.8-3.8,3.8h-165c-2.1,0-3.8-1.7-3.8-3.8V249.1c0-2.1,1.7-3.8,3.8-3.8l0,0h165
		c2.1,0,3.7,1.7,3.7,3.8V360.7z"/>
	<path id="b54624cf-b287-45f0-8f58-93aafc1fcbba-387" class="st4" d="M115.9,250.2h155.1c1.2,0,2.2,1,2.2,2.2v104.5
		c0,1.2-1,2.2-2.2,2.2H115.9c-1.2,0-2.2-1-2.2-2.2l0,0V252.4C113.6,251.2,114.6,250.2,115.9,250.2L115.9,250.2L115.9,250.2
		L115.9,250.2z"/>
	<path class="st7" d="M117.8,252.7h151c1.2,0,2.2,1,2.2,2.2v98.9c0,1.2-1,2.2-2.2,2.2h-151c-1.2,0-2.2-1-2.2-2.2l0,0v-98.9
		C115.6,253.7,116.6,252.7,117.8,252.7L117.8,252.7z"/>
	<path class="st4" d="M243.3,378.4c0,2.1-1.7,3.9-3.8,3.9h-169c-2.1,0-3.9-1.7-3.8-3.9V263c0-2.1,1.7-3.9,3.8-3.9l0,0h169
		c2.1,0,3.9,1.7,3.8,3.9l0,0l0,0V378.4z"/>
	<path class="st6" d="M241.3,376.6c0,2.1-1.7,3.8-3.8,3.8h-165c-2.1,0-3.8-1.7-3.8-3.8V265c0-2.1,1.7-3.8,3.8-3.8h0h165
		c2.1,0,3.7,1.7,3.7,3.8V376.6z"/>
	<path id="a665a07e-790f-4a9c-be99-8c13ca89238c-388" class="st4" d="M77.6,266.1h155.1c1.2,0,2.2,1,2.2,2.2v104.5
		c0,1.2-1,2.2-2.2,2.2H77.6c-1.2,0-2.2-1-2.2-2.2V268.3C75.4,267.1,76.4,266.1,77.6,266.1C77.6,266.1,77.6,266.1,77.6,266.1
		L77.6,266.1z"/>
	<path class="st7" d="M79.6,268.6h151c1.2,0,2.2,1,2.2,2.2v98.9c0,1.2-1,2.2-2.2,2.2h-151c-1.2,0-2.2-1-2.2-2.2v-98.9
		C77.4,269.6,78.4,268.6,79.6,268.6C79.6,268.6,79.6,268.6,79.6,268.6z"/>
	<path class="st5" d="M191.2,290v68.4c0,0.8-0.7,1.5-1.5,1.5h-71.7c-0.8,0-1.5-0.7-1.5-1.5V282c0-0.8,0.7-1.5,1.5-1.5h62.7
		L191.2,290z"/>
	<path id="b3cdc3b1-5d0a-4cee-b54c-a38ee088c012-389" class="st6" d="M129.1,297.1c-0.5,0-0.9,0.4-0.9,1c0,0.5,0.4,0.9,0.9,0.9H154
		c0.5,0,1-0.4,1-0.9c0-0.5-0.4-1-0.9-1c0,0,0,0,0,0c0,0,0,0,0,0H129.1z"/>
	<path id="b79c0997-055d-434d-8704-cfc1ccad2281-390" class="st6" d="M129.1,306c-0.5,0-0.9,0.4-0.9,1c0,0.5,0.4,0.9,0.9,0.9h49.3
		c0.5,0,1-0.4,1-0.9c0-0.5-0.4-0.9-0.9-1c0,0,0,0,0,0H129.1z"/>
	<path id="ed7d1f14-d1d4-40af-b9ad-7b5b5ece23df-391" class="st6" d="M129.1,314.8c-0.5,0-0.9,0.4-0.9,1c0,0.5,0.4,0.9,0.9,0.9h49.3
		c0.5,0,1-0.4,1-0.9c0-0.5-0.4-1-0.9-1c0,0,0,0,0,0c0,0,0,0,0,0H129.1z"/>
	<path id="ba3b747a-a6b2-4f39-a169-6ef4c21cd2ce-392" class="st6" d="M129.1,323.7c-0.5,0-0.9,0.4-0.9,1c0,0.5,0.4,0.9,0.9,0.9h49.3
		c0.5,0,1-0.4,1-0.9s-0.4-1-0.9-1c0,0,0,0,0,0c0,0,0,0,0,0H129.1z"/>
	<path id="b6e4b743-2497-479e-800a-91c8b21b3df9-393" class="st6" d="M129.1,332.6c-0.5,0-0.9,0.4-0.9,1c0,0.5,0.4,0.9,0.9,0.9h49.3
		c0.5,0,1-0.4,1-0.9s-0.4-1-0.9-1c0,0,0,0,0,0c0,0,0,0,0,0H129.1z"/>
	<path id="f91f499d-e7c9-446d-84c9-bf78465468f6-394" class="st6" d="M129.1,341.4c-0.5,0-0.9,0.4-0.9,1c0,0.5,0.4,0.9,0.9,0.9h49.3
		c0.5,0,1-0.4,1-0.9c0-0.5-0.4-1-0.9-1c0,0,0,0,0,0c0,0,0,0,0,0H129.1z"/>
	<path class="st5" d="M191.2,290h-9.6c-0.6,0-1-0.5-1-1v-8.6l0,0L191.2,290z"/>
	<path class="st8" d="M191.2,290h-9.6c-0.6,0-1-0.5-1-1v-8.6l0,0L191.2,290z"/>
</g>
<g>
	<path class="st9" d="M638.1,378.5H435.7c-7.2,0-13.1-5.9-13.1-13.1v-159c0-5.3,4.3-9.6,9.6-9.6h209.3c5.4,0,9.8,4.4,9.8,9.8v158.8
		C651.2,372.6,645.4,378.5,638.1,378.5z"/>
	<path class="st6" d="M448.4,365.4h177c7,0,12.7-5.7,12.7-12.7v-122c0-7-5.7-12.7-12.7-12.7h-177c-7,0-12.7,5.7-12.7,12.7v122
		C435.7,359.7,441.4,365.4,448.4,365.4z"/>
	<path class="st3" d="M651.1,205.7H422.4V199c0-7.3,5.9-13.1,13.2-13.1h202.3c7.3,0,13.1,5.9,13.2,13.1V205.7z"/>
	<circle class="st6" cx="446.3" cy="195.8" r="3.4"/>
	<circle class="st6" cx="459.3" cy="195.8" r="3.4"/>
	<circle class="st6" cx="472.2" cy="195.8" r="3.4"/>
	<path class="st5" d="M461.5,275.2h-8.8c-1,0-1.8-0.8-1.8-1.8v-8.8c0-1,0.8-1.8,1.8-1.8h8.8c1,0,1.8,0.8,1.8,1.8v8.8
		C463.3,274.4,462.5,275.2,461.5,275.2z"/>
	<path class="st10" d="M461.5,297.9h-8.8c-1,0-1.8-0.8-1.8-1.8v-8.8c0-1,0.8-1.8,1.8-1.8h8.8c1,0,1.8,0.8,1.8,1.8v8.8
		C463.3,297.1,462.5,297.9,461.5,297.9z"/>
	<path class="st3" d="M461.5,320.6h-8.8c-1,0-1.8-0.8-1.8-1.8v-8.8c0-1,0.8-1.8,1.8-1.8h8.8c1,0,1.8,0.8,1.8,1.8v8.8
		C463.3,319.8,462.5,320.6,461.5,320.6z"/>
	<path class="st3" d="M518.8,270.8h-42.2c-1,0-1.8-0.8-1.8-1.8c0-1,0.8-1.8,1.8-1.8h42.2c1,0,1.8,0.8,1.8,1.8
		C520.6,270,519.8,270.8,518.8,270.8C518.8,270.8,518.8,270.8,518.8,270.8z"/>
	<path class="st3" d="M518.8,293.5h-42.2c-1,0-1.8-0.8-1.8-1.8c0-1,0.8-1.8,1.8-1.8h42.2c1,0,1.8,0.8,1.8,1.8
		C520.6,292.7,519.8,293.5,518.8,293.5z"/>
	<path class="st3" d="M518.8,316.2h-42.2c-1,0-1.8-0.8-1.8-1.8c0-1,0.8-1.8,1.8-1.8h42.2c1,0,1.8,0.8,1.8,1.8
		C520.6,315.4,519.8,316.2,518.8,316.2C518.8,316.2,518.8,316.2,518.8,316.2z"/>
	<path class="st5" d="M622.9,292.3c0-0.8,0.1-1.5,0.1-2.3c0-20.8-16.8-37.6-37.6-37.6v39.9H622.9z"/>
	<path class="st10" d="M582.5,295.7v-39.9c-20.8,0-37.6,16.8-37.6,37.6c0,20.8,16.8,37.6,37.6,37.6c19.9,0,36.3-15.5,37.5-35.3
		H582.5z"/>
</g>
<g>
	<path class="st9" d="M372.3,563.4l-91.7-92.1c-3.3-3.3-3.3-8.6,0-11.9l72.4-72c2.4-2.4,6.3-2.4,8.7,0l94.8,95.2
		c2.4,2.5,2.4,6.4,0,8.9l-72.3,72C381,566.7,375.6,566.7,372.3,563.4z"/>
	<path class="st6" d="M292.4,471.1l80.2,80.6c3.2,3.2,8.3,3.2,11.5,0l0,0l55.5-55.3c3.2-3.2,3.2-8.3,0-11.5l0,0l-80.2-80.6
		c-3.2-3.2-8.3-3.2-11.5,0l-55.5,55.3C289.2,462.7,289.2,467.9,292.4,471.1z"/>
	<path class="st3" d="M456.9,491L353.3,386.9l3-3c3.3-3.3,8.7-3.3,11.9,0l91.7,92.1c3.3,3.3,3.3,8.6,0,11.9L456.9,491z"/>
	<circle class="st6" cx="368.6" cy="393.3" r="2.2"/>
	<circle class="st6" cx="374.5" cy="399.2" r="2.2"/>
	<circle class="st6" cx="380.3" cy="405.1" r="2.2"/>
	
		<rect x="426.8" y="496.2" transform="matrix(0.7087 -0.7055 0.7055 0.7087 -226.2744 445.9799)" class="st4" width="0.3" height="1.7"/>
	<path class="st4" d="M423.9,494.1l-2.4-2.4l0.2-0.2l2.4,2.4L423.9,494.1z M419.1,489.3l-2.4-2.4l0.2-0.2l2.4,2.4L419.1,489.3z
		 M414.4,484.6l-2.4-2.4l0.2-0.2l2.4,2.4L414.4,484.6z M409.6,479.8l-2.4-2.4l0.2-0.2l2.4,2.4L409.6,479.8z M404.8,475l-2.4-2.4
		l0.2-0.2l2.4,2.4L404.8,475z M400.1,470.2l-2.4-2.4l0.2-0.2l2.4,2.4L400.1,470.2z M395.3,465.4l-2.4-2.4l0.2-0.2l2.4,2.4
		L395.3,465.4z M390.5,460.6l-2.4-2.4l0.2-0.2l2.4,2.4L390.5,460.6z M385.8,455.8l-2.4-2.4l0.2-0.2l2.4,2.4L385.8,455.8z M381,451.1
		l-2.4-2.4l0.2-0.2l2.4,2.4L381,451.1z M376.3,446.3l-2.4-2.4l0.2-0.2l2.4,2.4L376.3,446.3z M371.5,441.5l-2.4-2.4l0.2-0.2l2.4,2.4
		L371.5,441.5z M366.7,436.7l-2.4-2.4l0.2-0.2l2.4,2.4L366.7,436.7z M362,431.9l-2.4-2.4l0.2-0.2l2.4,2.4L362,431.9z M357.2,427.1
		l-2.4-2.4l0.2-0.2l2.4,2.4L357.2,427.1z M352.4,422.3l-2.4-2.4l0.2-0.2l2.4,2.4L352.4,422.3z"/>
	
		<rect x="347" y="416" transform="matrix(0.7087 -0.7055 0.7055 0.7087 -192.9725 366.3561)" class="st4" width="0.3" height="1.7"/>
	
		<rect x="369.7" y="475.6" transform="matrix(0.7087 -0.7055 0.7055 0.7087 -228.3545 399.7165)" class="st4" width="0.3" height="1.7"/>
	<path class="st4" d="M366.9,473.5l-2.3-2.4l0.2-0.2l2.3,2.4L366.9,473.5z M362.2,468.8l-2.3-2.4l0.2-0.2l2.3,2.4L362.2,468.8z
		 M357.5,464.1l-2.3-2.4l0.2-0.2l2.3,2.4L357.5,464.1z M352.8,459.4l-2.3-2.4l0.2-0.2l2.3,2.4L352.8,459.4z M348.1,454.7l-2.3-2.4
		l0.2-0.2l2.3,2.4L348.1,454.7z M343.4,450l-2.3-2.4l0.2-0.2l2.3,2.4L343.4,450z M338.7,445.3l-2.3-2.4l0.2-0.2l2.3,2.4L338.7,445.3
		z M334,440.6l-2.3-2.4l0.2-0.2l2.3,2.4L334,440.6z"/>
	
		<rect x="328.7" y="434.3" transform="matrix(0.7087 -0.7055 0.7055 0.7087 -211.2114 358.7278)" class="st4" width="0.3" height="1.7"/>
	
		<rect x="338.1" y="461.1" transform="matrix(0.7087 -0.7055 0.7055 0.7087 -227.3869 373.1616)" class="st4" width="0.3" height="1.7"/>
	<path class="st4" d="M335.1,459l-2.4-2.4l0.2-0.2l2.4,2.4L335.1,459z M330.3,454.2l-2.4-2.4l0.2-0.2l2.4,2.4L330.3,454.2z
		 M325.5,449.3l-2.4-2.4l0.2-0.2l2.4,2.4L325.5,449.3z"/>
	
		<rect x="320" y="443" transform="matrix(0.7087 -0.7055 0.7055 0.7087 -219.8406 355.1188)" class="st4" width="0.3" height="1.7"/>
	
		<rect x="323.3" y="475.9" transform="matrix(0.7087 -0.7055 0.7055 0.7087 -242.1128 367.0026)" class="st4" width="0.3" height="1.7"/>
	<path class="st4" d="M320.3,473.8l-2.4-2.4l0.2-0.2l2.4,2.4L320.3,473.8z M315.5,468.9l-2.4-2.4l0.2-0.2l2.4,2.4L315.5,468.9z
		 M310.6,464.1l-2.4-2.4l0.2-0.2l2.4,2.4L310.6,464.1z"/>
	
		<rect x="305.2" y="457.7" transform="matrix(0.7087 -0.7055 0.7055 0.7087 -234.5665 348.9598)" class="st4" width="0.3" height="1.7"/>
	<path class="st5" d="M311.1,464.9l68,68.3c3.4,3.4,9,3.5,12.4,0l33.6-33.5l-0.1-0.1l-56.7-0.1l0-17.6c0-0.7-0.3-1.3-0.8-1.7
		c-0.4-0.3-0.9-0.4-1.4-0.4l-29.7-0.1l0-12.9c0-1.2-0.9-2.1-2.1-2.1c0,0,0,0,0,0C334.2,464.7,314.8,464.8,311.1,464.9z"/>
	<path class="st10" d="M310.6,464.8l0-0.3l23.8,0.1c1.3,0,2.4,1.1,2.4,2.4l0,12.6l29.5,0.1c1.3,0,2.4,1.1,2.4,2.4l0,17.3l57,0.1
		l0,0.3l-57.3-0.1l0-17.6c0-1.2-0.9-2.1-2.1-2.1c0,0,0,0,0,0l-29.8-0.1l0-12.9c0-1.2-0.9-2.1-2.1-2.1L310.6,464.8z"/>
	<circle class="st10" cx="338.8" cy="462.5" r="1.9"/>
	<circle class="st10" cx="370.5" cy="477" r="1.9"/>
	<circle class="st10" cx="427.1" cy="496.4" r="1.9"/>
</g>
</svg>
